# xmcd
#
# Track frame offsets:
#  150
#  13539
#  25801
#  41373
#  55366
#  70643
#  84167
#  100079
#  117296
#  131347
#  145196
#  162342
#  174527
#  193895
#
# Disc length: 2804 seconds
#
# Revision: 1
# Processed by: cddbd v1.5.1PL2 Copyright (c) Steve Scherf et al.
# Submitted via: Collectorz.com_Music_Collector 6.9
#
DISCID=b00af20e
DTITLE=Trick Pony - R.I.D.E.
DYEAR=2005
DGENRE=Country
TTITLE0=Ain't Wastin' Good Whiskey On You
TTITLE1=What's Not To Love
TTITLE2=It's A Heartache
TTITLE3=When I Fall
TTITLE4=I Didn't
TTITLE5=The Bride
TTITLE6=Sad City
TTITLE7=Stand In The Middle Of Texas
TTITLE8=Senorita
TTITLE9=Hillbilly Rich
TTITLE10=Once A Cowboy
TTITLE11=Cry Cry Cry
TTITLE12=I Can Live With That
TTITLE13=Maryann's Song
EXTD=
EXTT0=
EXTT1=
EXTT2=
EXTT3=
EXTT4=
EXTT5=
EXTT6=
EXTT7=
EXTT8=
EXTT9=
EXTT10=
EXTT11=
EXTT12=
EXTT13=
PLAYORDER=
